<svg xmlns="http://www.w3.org/2000/svg" xmlns:xlink="http://www.w3.org/1999/xlink" width="500" zoomAndPan="magnify" viewBox="0 0 375 374.999991" height="500" preserveAspectRatio="xMidYMid meet" version="1.0"><path fill="#000000" d="M 177.058594 234.921875 C 169.265625 228.414062 155.347656 221.410156 143.054688 215.230469 C 134.953125 211.152344 127.289062 207.296875 121.722656 203.804688 C 119.433594 203.472656 116.535156 203.308594 112.910156 203.308594 C 109.085938 203.308594 104.609375 203.484375 98.40625 203.878906 L 94.289062 204.144531 L 93.167969 200.140625 C 91.972656 195.804688 91.644531 191.101562 92.191406 186.183594 L 92.457031 183.820312 L 94.441406 182.507812 C 95.0625 182.089844 99.117188 178.722656 102.84375 174.527344 C 104.863281 158.738281 109.492188 150.664062 109.695312 150.332031 L 113.140625 144.449219 L 115.453125 146.925781 L 118.300781 143.683594 C 117.601562 143.632812 116.929688 143.46875 116.28125 143.191406 C 114.640625 142.527344 113.433594 141.15625 111.957031 138.320312 C 110.660156 135.816406 110.164062 134.136719 110.292969 132.714844 C 110.34375 131.824219 110.597656 130.949219 111.042969 130.199219 C 111.640625 129.078125 112.53125 128.152344 113.636719 127.527344 L 114.945312 126.777344 L 100.503906 100.703125 C 97.3125 99.433594 95.671875 97.449219 94.859375 95.949219 C 93.894531 94.183594 93.042969 91.246094 94.453125 87.292969 C 96.195312 82.285156 100.898438 78.507812 106.441406 77.683594 C 107.152344 77.582031 107.863281 77.515625 108.5625 77.515625 C 112.453125 77.515625 115.734375 79.09375 117.804688 81.953125 C 118.875 83.441406 120.070312 85.945312 119.902344 89.671875 L 134.167969 115.84375 L 135.003906 115.375 C 136.011719 114.800781 137.140625 114.511719 138.285156 114.511719 C 139.46875 114.511719 140.597656 114.828125 141.605469 115.398438 C 143.90625 105.179688 146.140625 96.929688 150.730469 90.6875 C 156.046875 83.464844 163.886719 79.195312 178.710938 75.484375 L 179.90625 75.191406 L 181.101562 75.46875 C 194.511719 78.585938 202.851562 82.5 208.117188 88.195312 C 213.25 93.738281 215.003906 100.539062 216.863281 107.746094 C 217.511719 110.277344 218.183594 112.859375 219.023438 115.617188 C 219.976562 115.109375 221.058594 114.816406 222.175781 114.816406 C 223.320312 114.816406 224.449219 115.121094 225.457031 115.679688 L 226.078125 116.035156 C 226.21875 115.960938 226.34375 115.882812 226.484375 115.808594 L 240.546875 90.011719 C 240.378906 86.847656 241.28125 83.925781 243.113281 81.726562 C 245.210938 79.207031 248.324219 77.820312 251.871094 77.820312 C 252.519531 77.820312 253.179688 77.871094 253.84375 77.960938 C 257.019531 78.230469 260.109375 79.765625 262.574219 82.296875 C 264.976562 84.761719 266.480469 87.914062 266.683594 90.941406 C 266.859375 93.574219 266.085938 95.988281 264.457031 97.933594 C 263.300781 99.304688 261.789062 100.359375 259.929688 101.074219 L 248.59375 121.566406 C 249.734375 124.246094 249.800781 127.03125 249.851562 129.332031 C 249.875 130.414062 249.902344 131.429688 250.027344 132.242188 L 250.054688 132.371094 L 250.066406 132.511719 C 250.179688 133.640625 250.371094 134.1875 250.472656 134.445312 C 250.777344 134.507812 251.058594 134.546875 251.3125 134.546875 C 253.878906 134.546875 256.308594 130.042969 256.421875 125.101562 L 256.765625 109.449219 L 265.691406 122.316406 C 267.789062 125.339844 269.390625 129.90625 269.960938 134.289062 C 271.78125 134.1875 273.546875 134.113281 275.175781 134.050781 L 282.800781 133.746094 L 280.144531 140.902344 C 278.074219 146.46875 274.511719 151.972656 270.394531 155.992188 C 265.882812 160.390625 260.847656 162.984375 255.722656 163.554688 C 256.601562 166.960938 257.300781 170.648438 257.796875 174.550781 C 261.507812 178.746094 265.574219 182.117188 266.199219 182.535156 L 268.183594 183.84375 L 268.449219 186.207031 C 268.996094 191.128906 268.664062 195.820312 267.46875 200.167969 L 266.363281 204.144531 L 262.246094 203.878906 C 256.027344 203.484375 251.554688 203.308594 247.742188 203.308594 C 244.117188 203.308594 241.21875 203.472656 238.929688 203.804688 C 233.363281 207.296875 225.695312 211.164062 217.597656 215.230469 C 205.304688 221.410156 191.375 228.425781 183.59375 234.921875 L 180.339844 237.644531 Z M 177.058594 234.921875 " fill-opacity="1" fill-rule="nonzero"/><path fill="#2cf0f4" d="M 275.277344 136.566406 C 272.886719 136.667969 270.253906 136.769531 267.636719 136.972656 C 267.46875 132.039062 265.652344 126.714844 263.59375 123.738281 L 259.128906 117.308594 L 258.953125 125.136719 C 258.824219 130.871094 255.863281 137.0625 251.300781 137.0625 C 250.640625 137.0625 249.941406 136.949219 249.214844 136.707031 C 248.3125 136.261719 247.753906 134.964844 247.523438 132.753906 L 247.511719 132.6875 L 247.5 132.625 C 247.347656 131.632812 247.320312 130.539062 247.296875 129.371094 C 247.246094 126.828125 247.179688 124.007812 245.707031 121.488281 L 258.175781 98.976562 C 260.019531 98.429688 261.46875 97.527344 262.511719 96.292969 C 263.707031 94.871094 264.265625 93.078125 264.140625 91.105469 C 263.972656 88.679688 262.742188 86.109375 260.746094 84.0625 C 258.6875 81.953125 256.128906 80.683594 253.539062 80.480469 C 252.964844 80.402344 252.40625 80.351562 251.847656 80.351562 C 249.0625 80.351562 246.648438 81.417969 245.03125 83.339844 C 243.46875 85.207031 242.796875 87.75 243.101562 90.546875 L 228.328125 117.664062 C 227.589844 118.042969 226.855469 118.476562 226.117188 118.972656 L 224.183594 117.878906 C 223.574219 117.523438 222.875 117.34375 222.164062 117.34375 C 220.699219 117.34375 219.328125 118.132812 218.601562 119.40625 L 217.953125 120.535156 C 216.378906 116.074219 215.347656 112.058594 214.394531 108.355469 C 212.539062 101.175781 210.9375 94.984375 206.246094 89.898438 C 201.339844 84.609375 193.40625 80.910156 180.515625 77.921875 L 179.917969 77.785156 L 179.320312 77.9375 C 165.132812 81.496094 157.699219 85.488281 152.777344 92.175781 C 147.871094 98.847656 145.773438 108.128906 142.976562 120.90625 C 142.632812 120.308594 142.226562 119.671875 141.78125 118.996094 C 141.042969 117.777344 139.710938 117.027344 138.285156 117.027344 C 137.574219 117.027344 136.875 117.21875 136.265625 117.5625 L 133.175781 119.316406 L 117.324219 90.242188 C 117.640625 86.886719 116.660156 84.710938 115.746094 83.453125 C 114.171875 81.265625 111.613281 80.070312 108.5625 80.070312 C 107.992188 80.070312 107.394531 80.121094 106.808594 80.199219 C 102.183594 80.886719 98.265625 84 96.84375 88.132812 C 95.75 91.195312 96.371094 93.40625 97.085938 94.730469 C 97.785156 96.011719 99.246094 97.679688 102.257812 98.632812 L 118.378906 127.742188 L 114.882812 129.726562 C 114.183594 130.121094 113.625 130.71875 113.253906 131.417969 C 112.988281 131.863281 112.835938 132.382812 112.824219 132.878906 C 112.757812 133.4375 112.847656 134.480469 114.207031 137.136719 C 115.492188 139.628906 116.371094 140.496094 117.257812 140.835938 C 117.71875 141.054688 118.226562 141.15625 118.746094 141.15625 C 119.457031 141.15625 120.121094 140.953125 120.71875 140.683594 C 121.1875 141.421875 121.757812 142.300781 122.230469 143.050781 L 115.492188 150.703125 L 113.585938 148.667969 L 111.867188 151.617188 C 111.679688 151.949219 107.152344 159.816406 105.257812 175.621094 C 101.152344 180.386719 96.550781 184.160156 95.839844 184.632812 L 94.847656 185.292969 L 94.71875 186.476562 C 94.210938 191.078125 94.503906 195.449219 95.621094 199.46875 L 96.167969 201.464844 L 98.230469 201.335938 C 104.496094 200.941406 109.023438 200.765625 112.898438 200.765625 C 116.929688 200.765625 120.121094 200.96875 122.625 201.375 C 128.117188 204.882812 135.921875 208.8125 144.183594 212.96875 C 156.589844 219.210938 170.664062 226.292969 178.671875 232.976562 L 180.300781 234.339844 L 181.925781 232.976562 C 189.9375 226.292969 204.007812 219.210938 216.417969 212.96875 C 224.679688 208.8125 232.484375 204.882812 237.976562 201.375 C 240.480469 200.96875 243.671875 200.765625 247.703125 200.765625 C 251.578125 200.765625 256.105469 200.941406 262.371094 201.335938 L 264.433594 201.464844 L 264.976562 199.46875 C 266.097656 195.4375 266.390625 191.078125 265.882812 186.476562 L 265.753906 185.292969 L 264.761719 184.632812 C 264.050781 184.160156 259.449219 180.386719 255.34375 175.621094 C 254.605469 169.503906 253.472656 164.6875 252.367188 161.089844 C 252.75 161.113281 253.117188 161.125 253.5 161.125 C 258.699219 161.125 263.921875 158.710938 268.601562 154.160156 C 272.464844 150.398438 275.796875 145.234375 277.742188 140 L 279.078125 136.414062 Z M 275.277344 136.566406 " fill-opacity="1" fill-rule="nonzero"/><path fill="#b0afeb" d="M 121.976562 136.695312 L 128.472656 148.148438 L 145.785156 149.839844 L 143.308594 132.753906 L 139.519531 127.335938 Z M 121.976562 136.695312 " fill-opacity="1" fill-rule="nonzero"/><path fill="#000000" d="M 138.578125 129.191406 L 124.898438 141.828125 L 121.300781 136.273438 L 138.222656 127.84375 Z M 138.578125 129.191406 " fill-opacity="0.3" fill-rule="nonzero"/><path fill="#b0afeb" d="M 116.34375 131.621094 L 137.726562 119.480469 C 138.476562 119.0625 139.417969 119.316406 139.847656 120.066406 L 141.921875 123.6875 C 142.355469 124.4375 142.085938 125.378906 141.347656 125.8125 L 119.851562 138.105469 C 119.089844 138.550781 118.109375 138.257812 117.703125 137.46875 L 115.746094 133.691406 C 115.339844 132.941406 115.621094 132.027344 116.34375 131.621094 Z M 116.34375 131.621094 " fill-opacity="1" fill-rule="nonzero"/><path fill="#605fd7" d="M 122.867188 127.171875 L 105.042969 94.984375 C 100.949219 94.171875 99.5625 92.1875 100.695312 89.109375 C 101.738281 86.261719 104.292969 84.265625 107.28125 83.769531 C 111.664062 83.035156 114.207031 84.75 113.546875 90.699219 L 130.847656 122.441406 Z M 122.867188 127.171875 " fill-opacity="1" fill-rule="nonzero"/><path fill="#000000" d="M 121.847656 122.976562 C 122.765625 124.769531 125.203125 125.023438 128.625 123.523438 C 126.71875 124.363281 125.128906 125.851562 123.195312 126.664062 Z M 121.847656 122.976562 " fill-opacity="0.4" fill-rule="nonzero"/><path fill="#000000" d="M 106.847656 97.652344 C 107.039062 97.578125 109.695312 97.144531 111.550781 94.308594 C 112.910156 92.210938 109.667969 101.898438 109.667969 101.898438 Z M 106.847656 97.652344 " fill-opacity="0.4" fill-rule="nonzero"/><path fill="#000000" d="M 110.078125 105.546875 C 110.265625 105.472656 113.203125 104.707031 115.277344 101.632812 C 116.675781 99.558594 112.898438 109.792969 112.898438 109.792969 Z M 110.078125 105.546875 " fill-opacity="0.4" fill-rule="nonzero"/><path fill="#000000" d="M 113.953125 112.945312 C 114.144531 112.871094 116.902344 113.074219 119.710938 107.796875 C 120.882812 105.585938 116.777344 117.191406 116.777344 117.191406 Z M 113.953125 112.945312 " fill-opacity="0.4" fill-rule="nonzero"/><path fill="#b0afeb" d="M 113.839844 92.25 C 112.910156 91.984375 111.945312 91.792969 110.980469 91.84375 C 110.078125 91.894531 109.160156 92.125 108.4375 92.65625 C 107.851562 92.785156 107.394531 93.214844 106.9375 93.597656 C 107.332031 92.605469 108.144531 91.804688 109.074219 91.285156 C 110 90.761719 111.054688 90.472656 112.097656 90.28125 C 112.238281 90.253906 112.378906 90.230469 112.503906 90.28125 C 112.632812 90.332031 112.722656 90.445312 112.796875 90.558594 C 113.179688 91.09375 113.535156 91.664062 113.839844 92.25 Z M 113.839844 92.25 " fill-opacity="1" fill-rule="nonzero"/><path fill="#b0afeb" d="M 112.402344 97.296875 C 112.402344 97.296875 114.082031 94.84375 116.523438 99.230469 C 116.523438 99.230469 117.335938 98.960938 117.335938 98.910156 C 117.335938 98.859375 114.015625 93.507812 114.015625 93.507812 L 112.414062 95.441406 Z M 112.402344 97.296875 " fill-opacity="1" fill-rule="nonzero"/><path fill="#b0afeb" d="M 116.34375 103.90625 C 116.34375 103.90625 117.691406 102.421875 120.488281 106.207031 C 120.488281 106.207031 121.210938 106.171875 121.210938 106.121094 C 121.210938 106.082031 117.894531 100.71875 117.894531 100.71875 L 116.292969 102.648438 Z M 116.34375 103.90625 " fill-opacity="1" fill-rule="nonzero"/><path fill="#b0afeb" d="M 120.195312 110.863281 C 120.195312 110.863281 122.101562 109.972656 125.292969 114.917969 C 125.292969 114.917969 125.078125 113.125 125.078125 113.074219 C 125.078125 113.035156 121.757812 107.671875 121.757812 107.671875 L 120.15625 109.601562 Z M 120.195312 110.863281 " fill-opacity="1" fill-rule="nonzero"/><path fill="#b0afeb" d="M 124.59375 119.507812 C 124.59375 119.507812 126.601562 118.210938 129.78125 123.140625 C 129.78125 123.140625 129.464844 121.757812 129.464844 121.71875 C 129.464844 121.679688 126.144531 116.316406 126.144531 116.316406 L 124.542969 118.246094 Z M 124.59375 119.507812 " fill-opacity="1" fill-rule="nonzero"/><path fill="#000000" d="M 118.085938 119.570312 C 118.277344 119.492188 122.472656 120.816406 125.039062 114.34375 C 125.96875 112.019531 121.289062 124.910156 121.289062 124.910156 Z M 118.085938 119.570312 " fill-opacity="0.4" fill-rule="nonzero"/><path fill="#000000" d="M 112.621094 111.546875 L 108.03125 101.417969 L 108.257812 100.972656 C 111.09375 95.414062 113.128906 90.953125 113.140625 90.914062 L 114.082031 88.855469 L 118.707031 99.078125 L 118.519531 99.507812 C 118.492188 99.558594 116.445312 104.046875 113.585938 109.640625 Z M 110.316406 101.46875 L 112.722656 106.78125 C 114.5625 103.082031 115.949219 100.132812 116.445312 99.066406 L 114.070312 93.8125 C 113.242188 95.582031 111.90625 98.339844 110.316406 101.46875 Z M 110.316406 101.46875 " fill-opacity="1" fill-rule="nonzero"/><path fill="#000000" d="M 121.210938 126.636719 L 115.503906 116.558594 L 115.757812 116.0625 C 118.582031 110.519531 120.589844 105.714844 120.601562 105.675781 L 121.367188 103.832031 L 127.570312 113.761719 L 127.328125 114.269531 C 127.300781 114.320312 124.925781 119.339844 122.066406 124.921875 Z M 117.84375 116.507812 L 121.109375 122.277344 C 123.042969 118.4375 124.644531 115.121094 125.230469 113.886719 L 121.722656 108.28125 C 120.921875 110.125 119.535156 113.164062 117.84375 116.507812 Z M 117.84375 116.507812 " fill-opacity="1" fill-rule="nonzero"/><path fill="#000000" d="M 129.355469 133.433594 L 131.480469 132.109375 L 140.132812 146.027344 L 138.003906 147.351562 Z M 129.355469 133.433594 " fill-opacity="1" fill-rule="nonzero"/><path fill="#b0afeb" d="M 113.890625 84.609375 C 113.878906 85.296875 113.675781 85.945312 113.332031 86.492188 C 113.089844 86.859375 112.796875 87.191406 112.441406 87.445312 C 111.84375 87.890625 111.09375 88.15625 110.28125 88.15625 C 108.285156 88.15625 106.667969 86.542969 106.667969 84.546875 C 106.667969 84.507812 106.667969 84.46875 106.667969 84.445312 C 106.667969 84.253906 106.695312 84.0625 106.734375 83.875 C 106.835938 83.328125 107.0625 82.816406 107.394531 82.386719 C 109.960938 82.003906 112.480469 82.664062 113.890625 84.609375 Z M 113.890625 84.609375 " fill-opacity="1" fill-rule="nonzero"/><path fill="#000000" d="M 141.605469 124.972656 L 118.59375 138.449219 C 118.59375 138.449219 115.441406 132.523438 115.441406 132.523438 C 116.851562 131.699219 118.160156 130.628906 119.660156 130.007812 C 122.015625 130.742188 127.148438 129.179688 129.449219 128.238281 C 127.8125 129.585938 126.234375 130.273438 124.898438 130.960938 C 127.390625 131.113281 138.960938 126.929688 141.605469 124.972656 Z M 141.605469 124.972656 " fill-opacity="0.3" fill-rule="nonzero"/><path fill="#000000" d="M 114.894531 90.421875 C 115.289062 87.851562 114.84375 85.933594 113.890625 84.625 C 112.480469 82.679688 109.960938 82.015625 107.394531 82.398438 C 104.0625 82.894531 100.65625 85.15625 99.449219 88.664062 C 98.023438 92.605469 100.035156 95.199219 104.179688 96.152344 L 121.707031 127.808594 L 124.023438 126.523438 L 123.996094 126.484375 L 123.90625 126.332031 L 122.535156 123.828125 L 122.015625 122.902344 L 121.988281 122.847656 L 120.144531 119.519531 L 117.578125 114.890625 L 117.539062 114.816406 L 116.078125 112.183594 L 113.636719 107.761719 L 113.507812 107.53125 L 111.957031 104.722656 L 109.9375 101.074219 L 109.632812 100.527344 L 107.851562 97.324219 L 106.414062 94.730469 C 107.113281 93.878906 107.839844 93.140625 108.589844 92.542969 C 109.695312 91.664062 110.878906 91.105469 112.160156 90.953125 L 112.722656 91.972656 L 113.292969 93.027344 L 113.738281 93.851562 L 116.648438 99.191406 L 117.121094 100.054688 L 117.640625 101.023438 L 120.476562 106.207031 L 121.046875 107.25 L 121.46875 108.015625 L 124.9375 114.382812 L 124.988281 114.472656 L 125.015625 114.523438 L 125.574219 115.550781 L 126.054688 116.429688 L 129.414062 122.582031 L 129.667969 123.054688 L 129.703125 123.027344 L 129.742188 123.003906 L 130.8125 122.417969 L 130.824219 122.417969 L 131.992188 121.78125 Z M 105.167969 89.074219 C 104.191406 87.101562 105.105469 85.335938 106.683594 84.445312 C 108.195312 83.59375 110.292969 83.554688 111.867188 84.953125 C 112.542969 85.550781 112.671875 86.503906 112.441406 87.445312 C 112.109375 88.792969 111.015625 90.113281 109.71875 90.316406 C 108.511719 90.558594 105.742188 90.484375 105.167969 89.074219 Z M 105.167969 89.074219 " fill-opacity="1" fill-rule="nonzero"/><path fill="#000000" d="M 119.0625 139.617188 C 118.796875 139.617188 118.519531 139.578125 118.25 139.503906 C 117.5 139.285156 116.863281 138.753906 116.507812 138.066406 L 114.550781 134.289062 C 113.839844 132.90625 114.335938 131.226562 115.683594 130.464844 L 137.066406 118.324219 C 138.4375 117.535156 140.207031 118.019531 140.992188 119.40625 L 143.066406 123.027344 C 143.855469 124.402344 143.371094 126.167969 141.996094 126.957031 L 120.488281 139.25 C 120.054688 139.492188 119.558594 139.617188 119.0625 139.617188 Z M 116.992188 132.765625 C 116.890625 132.828125 116.839844 132.957031 116.902344 133.070312 L 118.859375 136.847656 C 118.898438 136.921875 118.960938 136.949219 119 136.960938 C 119.039062 136.972656 119.113281 136.984375 119.179688 136.933594 L 140.675781 124.640625 C 140.789062 124.578125 140.828125 124.4375 140.765625 124.324219 L 138.691406 120.699219 C 138.628906 120.585938 138.488281 120.546875 138.375 120.613281 Z M 116.992188 132.765625 " fill-opacity="1" fill-rule="nonzero"/><path fill="#000000" d="M 121.097656 137.984375 L 123.316406 136.523438 L 127.769531 143.289062 L 125.550781 144.75 Z M 121.097656 137.984375 " fill-opacity="1" fill-rule="nonzero"/><path fill="#b0afeb" d="M 238.890625 137 L 232.394531 148.453125 L 215.082031 150.144531 L 217.574219 133.058594 L 221.347656 127.640625 Z M 238.890625 137 " fill-opacity="1" fill-rule="nonzero"/><path fill="#000000" d="M 222.300781 129.15625 L 235.96875 142.132812 L 239.566406 136.578125 L 222.644531 128.136719 Z M 222.300781 129.15625 " fill-opacity="0.1" fill-rule="nonzero"/><path fill="#b0afeb" d="M 244.523438 131.914062 L 223.140625 119.773438 C 222.390625 119.355469 221.449219 119.609375 221.019531 120.359375 L 218.945312 123.980469 C 218.515625 124.730469 218.78125 125.671875 219.519531 126.105469 L 241.015625 138.398438 C 241.777344 138.84375 242.757812 138.550781 243.164062 137.761719 L 245.121094 133.984375 C 245.527344 133.25 245.25 132.332031 244.523438 131.914062 Z M 244.523438 131.914062 " fill-opacity="1" fill-rule="nonzero"/><path fill="#605fd7" d="M 238.003906 127.464844 L 255.824219 95.277344 C 259.917969 94.460938 261.304688 92.480469 260.171875 89.402344 C 259.128906 86.554688 256.574219 84.558594 253.589844 84.0625 C 249.203125 83.328125 246.660156 85.042969 247.320312 90.992188 L 230.019531 122.734375 Z M 238.003906 127.464844 " fill-opacity="1" fill-rule="nonzero"/><path fill="#000000" d="M 239.019531 123.28125 C 238.105469 125.074219 235.664062 125.328125 232.242188 123.828125 C 234.152344 124.667969 235.738281 126.15625 237.671875 126.96875 Z M 239.019531 123.28125 " fill-opacity="0.4" fill-rule="nonzero"/><path fill="#000000" d="M 254.019531 97.945312 C 253.828125 97.871094 251.171875 97.4375 249.316406 94.601562 C 247.957031 92.503906 251.199219 102.191406 251.199219 102.191406 Z M 254.019531 97.945312 " fill-opacity="0.4" fill-rule="nonzero"/><path fill="#000000" d="M 250.792969 105.839844 C 250.601562 105.765625 247.664062 105 245.59375 101.925781 C 244.195312 99.851562 247.96875 110.085938 247.96875 110.085938 Z M 250.792969 105.839844 " fill-opacity="0.4" fill-rule="nonzero"/><path fill="#000000" d="M 246.914062 113.25 C 246.722656 113.175781 243.964844 113.378906 241.15625 108.101562 C 239.984375 105.890625 244.089844 117.496094 244.089844 117.496094 Z M 246.914062 113.25 " fill-opacity="0.4" fill-rule="nonzero"/><path fill="#b0afeb" d="M 247.027344 92.554688 C 247.957031 92.289062 248.921875 92.097656 249.890625 92.148438 C 250.792969 92.199219 251.707031 92.429688 252.429688 92.960938 C 253.015625 93.089844 253.472656 93.523438 253.929688 93.902344 C 253.539062 92.910156 252.722656 92.109375 251.796875 91.589844 C 250.867188 91.066406 249.8125 90.777344 248.769531 90.585938 C 248.628906 90.558594 248.492188 90.535156 248.363281 90.585938 C 248.234375 90.636719 248.148438 90.75 248.070312 90.863281 C 247.6875 91.398438 247.332031 91.957031 247.027344 92.554688 Z M 247.027344 92.554688 " fill-opacity="1" fill-rule="nonzero"/><path fill="#b0afeb" d="M 248.464844 97.601562 C 248.464844 97.601562 246.785156 95.148438 244.347656 99.535156 C 244.347656 99.535156 243.53125 99.269531 243.53125 99.21875 C 243.53125 99.167969 246.851562 93.8125 246.851562 93.8125 L 248.453125 95.746094 Z M 248.464844 97.601562 " fill-opacity="1" fill-rule="nonzero"/><path fill="#b0afeb" d="M 244.523438 104.214844 C 244.523438 104.214844 243.175781 102.726562 240.378906 106.515625 C 240.378906 106.515625 239.65625 106.476562 239.65625 106.425781 C 239.65625 106.386719 242.972656 101.023438 242.972656 101.023438 L 244.574219 102.953125 Z M 244.523438 104.214844 " fill-opacity="1" fill-rule="nonzero"/><path fill="#b0afeb" d="M 240.671875 111.152344 C 240.671875 111.152344 238.765625 110.265625 235.574219 115.210938 C 235.574219 115.210938 235.789062 113.417969 235.789062 113.367188 C 235.789062 113.316406 239.109375 107.976562 239.109375 107.976562 L 240.710938 109.910156 Z M 240.671875 111.152344 " fill-opacity="1" fill-rule="nonzero"/><path fill="#b0afeb" d="M 236.273438 119.8125 C 236.273438 119.8125 234.265625 118.515625 231.085938 123.445312 C 231.085938 123.445312 231.40625 122.0625 231.40625 122.023438 C 231.40625 121.984375 234.722656 116.621094 234.722656 116.621094 L 236.324219 118.554688 Z M 236.273438 119.8125 " fill-opacity="1" fill-rule="nonzero"/><path fill="#000000" d="M 242.78125 119.875 C 242.589844 119.796875 238.398438 121.121094 235.828125 114.648438 C 234.902344 112.324219 239.578125 125.214844 239.578125 125.214844 Z M 242.78125 119.875 " fill-opacity="0.4" fill-rule="nonzero"/><path fill="#000000" d="M 248.25 111.851562 L 247.269531 109.945312 C 244.410156 104.351562 242.363281 99.851562 242.335938 99.816406 L 242.148438 99.382812 L 246.773438 89.160156 L 247.714844 91.222656 C 247.742188 91.257812 249.773438 95.722656 252.597656 101.277344 L 252.824219 101.722656 Z M 244.421875 99.371094 C 244.917969 100.4375 246.292969 103.386719 248.148438 107.085938 L 250.550781 101.773438 C 248.960938 98.632812 247.636719 95.886719 246.800781 94.121094 Z M 244.421875 99.371094 " fill-opacity="1" fill-rule="nonzero"/><path fill="#000000" d="M 239.65625 126.941406 L 238.777344 125.238281 C 235.929688 119.644531 233.539062 114.625 233.515625 114.585938 L 233.273438 114.078125 L 239.476562 104.148438 L 240.238281 105.992188 C 240.265625 106.042969 242.261719 110.847656 245.082031 116.378906 L 245.335938 116.875 Z M 235.636719 114.191406 C 236.222656 115.425781 237.824219 118.742188 239.757812 122.582031 L 243.023438 116.8125 C 241.332031 113.46875 239.949219 110.429688 239.148438 108.585938 Z M 235.636719 114.191406 " fill-opacity="1" fill-rule="nonzero"/><path fill="#000000" d="M 220.738281 146.320312 L 229.390625 132.402344 L 231.515625 133.726562 L 222.863281 147.640625 Z M 220.738281 146.320312 " fill-opacity="1" fill-rule="nonzero"/><path fill="#b0afeb" d="M 246.976562 84.914062 C 246.992188 85.601562 247.195312 86.25 247.535156 86.796875 C 247.777344 87.164062 248.070312 87.496094 248.425781 87.75 C 249.023438 88.195312 249.773438 88.460938 250.589844 88.460938 C 252.582031 88.460938 254.199219 86.847656 254.199219 84.851562 C 254.199219 84.8125 254.199219 84.777344 254.199219 84.75 C 254.199219 84.558594 254.171875 84.367188 254.132812 84.179688 C 254.03125 83.632812 253.804688 83.121094 253.472656 82.691406 C 250.90625 82.308594 248.386719 82.96875 246.976562 84.914062 Z M 246.976562 84.914062 " fill-opacity="1" fill-rule="nonzero"/><path fill="#000000" d="M 219.265625 125.265625 L 242.273438 138.738281 C 242.273438 138.738281 245.425781 132.816406 245.425781 132.816406 C 244.015625 131.988281 242.707031 130.921875 241.207031 130.300781 C 238.855469 131.035156 233.71875 129.472656 231.417969 128.53125 C 233.058594 129.878906 234.632812 130.566406 235.96875 131.253906 C 233.476562 131.417969 221.910156 127.222656 219.265625 125.265625 Z M 219.265625 125.265625 " fill-opacity="0.1" fill-rule="nonzero"/><path fill="#000000" d="M 245.972656 90.710938 C 245.578125 88.144531 246.023438 86.226562 246.976562 84.914062 C 248.386719 82.96875 250.90625 82.308594 253.472656 82.691406 C 256.804688 83.1875 260.210938 85.449219 261.417969 88.957031 C 262.84375 92.898438 260.835938 95.492188 256.691406 96.445312 L 239.160156 128.113281 L 236.84375 126.828125 L 236.871094 126.789062 L 236.960938 126.636719 L 238.347656 124.132812 L 238.867188 123.207031 L 238.890625 123.15625 L 240.734375 119.824219 L 243.289062 115.210938 L 243.328125 115.132812 L 244.789062 112.5 L 247.246094 108.078125 L 247.371094 107.847656 L 248.921875 105.039062 L 250.945312 101.390625 L 251.25 100.84375 L 253.027344 97.640625 L 254.464844 95.046875 C 253.765625 94.195312 253.042969 93.457031 252.292969 92.859375 C 251.183594 91.984375 250.003906 91.425781 248.71875 91.273438 L 248.160156 92.289062 L 247.585938 93.34375 L 247.144531 94.171875 L 244.230469 99.507812 L 243.761719 100.375 L 243.238281 101.339844 L 240.40625 106.527344 L 239.832031 107.570312 L 239.414062 108.332031 L 235.941406 114.699219 L 235.890625 114.789062 L 235.867188 114.839844 L 235.308594 115.871094 L 234.824219 116.746094 L 231.46875 122.902344 L 231.214844 123.371094 L 231.175781 123.34375 L 231.136719 123.320312 L 230.070312 122.734375 L 230.058594 122.734375 L 228.886719 122.097656 Z M 255.699219 89.378906 C 256.675781 87.40625 255.761719 85.640625 254.183594 84.75 C 252.671875 83.898438 250.574219 83.859375 249 85.257812 C 248.324219 85.855469 248.199219 86.808594 248.425781 87.75 C 248.757812 89.097656 249.851562 90.421875 251.148438 90.625 C 252.355469 90.851562 255.125 90.777344 255.699219 89.378906 Z M 255.699219 89.378906 " fill-opacity="1" fill-rule="nonzero"/><path fill="#000000" d="M 241.804688 139.921875 C 241.308594 139.921875 240.8125 139.796875 240.367188 139.542969 L 218.871094 127.25 C 217.496094 126.460938 217.015625 124.691406 217.800781 123.320312 L 219.875 119.695312 C 220.664062 118.324219 222.417969 117.839844 223.800781 118.617188 L 245.183594 130.757812 C 246.53125 131.519531 247.027344 133.210938 246.316406 134.582031 L 244.359375 138.359375 C 244.003906 139.058594 243.367188 139.578125 242.617188 139.796875 C 242.363281 139.882812 242.082031 139.921875 241.804688 139.921875 Z M 222.378906 120.890625 C 222.300781 120.890625 222.226562 120.929688 222.175781 121.007812 L 220.101562 124.628906 C 220.039062 124.742188 220.078125 124.882812 220.191406 124.945312 L 241.6875 137.238281 C 241.765625 137.277344 241.828125 137.277344 241.867188 137.265625 C 241.90625 137.253906 241.96875 137.226562 242.007812 137.152344 L 243.964844 133.375 C 244.015625 133.261719 243.976562 133.132812 243.875 133.070312 L 222.492188 120.929688 C 222.457031 120.90625 222.417969 120.890625 222.378906 120.890625 Z M 222.378906 120.890625 " fill-opacity="1" fill-rule="nonzero"/><path fill="#000000" d="M 233.097656 143.617188 L 237.550781 136.851562 L 239.773438 138.3125 L 235.320312 145.078125 Z M 233.097656 143.617188 " fill-opacity="1" fill-rule="nonzero"/><path fill="#605fd7" d="M 271.78125 140.253906 L 270.570312 144.84375 L 263.578125 154.3125 L 254.628906 156.945312 L 246.8125 156.042969 L 248.019531 161.6875 L 250.804688 170.484375 L 250.957031 178.300781 L 254.492188 180.410156 L 262.691406 187.480469 L 258.40625 193.644531 L 249.378906 196.277344 L 236.222656 196.734375 L 223.066406 204.324219 L 200.5 214.023438 L 184.929688 223.570312 L 177.402344 224.027344 L 158.828125 213.351562 L 132.652344 200.714844 L 122.953125 197.027344 L 107.519531 194.929688 L 99.167969 187.9375 L 101.953125 184.097656 L 109.847656 176.128906 L 114.207031 155.367188 L 119.929688 156.347656 L 128.574219 140.699219 L 142.40625 148.59375 L 142.40625 139.644531 L 143.6875 126.484375 L 147.972656 119.148438 C 147.628906 108.320312 156.933594 91.5625 156.933594 91.5625 C 163.417969 86.058594 180.910156 81.660156 180.910156 81.660156 L 193.394531 85.578125 L 202.34375 90.914062 L 208.816406 101.746094 C 208.816406 101.746094 212.945312 118.820312 214.152344 121.972656 C 216.1875 124.375 218.515625 131.824219 218.515625 131.824219 L 225.417969 125.355469 L 230.171875 120.890625 L 230.464844 120.613281 L 231.53125 120.523438 L 233.933594 120.332031 L 238.128906 120.003906 L 241.890625 124.210938 L 241.96875 124.679688 L 243.851562 135.867188 L 247.90625 140.242188 L 248.515625 140.902344 L 255.738281 140.074219 L 262.132812 132.105469 L 263.707031 141.207031 Z M 271.78125 140.253906 " fill-opacity="1" fill-rule="nonzero"/><path fill="#2cf0f4" d="M 200.285156 119.199219 C 187.140625 123.292969 173.804688 123.421875 160.316406 119.875 C 160.316406 119.875 163.699219 116.671875 166.445312 116.113281 C 172.378906 118.859375 192.808594 117.535156 194.613281 115.996094 Z M 200.285156 119.199219 " fill-opacity="1" fill-rule="nonzero"/><path fill="#000000" d="M 201.570312 115.691406 C 197.207031 106.894531 190.367188 98.210938 180.019531 94.285156 C 183.859375 94.171875 187.636719 95.238281 193.050781 98.289062 C 191.246094 94.640625 181.519531 88.742188 176.90625 87.914062 C 179.539062 87.738281 187.113281 89.441406 190.484375 90.851562 C 187.101562 86.300781 186.046875 85.855469 180.566406 82.917969 L 183.261719 82.117188 C 207.160156 87.445312 207.316406 99.179688 213.238281 119.609375 C 213.238281 119.609375 217.941406 127.503906 217.941406 127.503906 C 220.332031 143.722656 221.566406 139.261719 215.285156 154.808594 C 219.125 152.039062 222.671875 148.679688 226.613281 146.113281 C 228.226562 145.160156 230.402344 143.8125 231.289062 142.132812 C 228.886719 149.074219 226.128906 156.917969 219.226562 164.671875 C 224.375 160.582031 226.929688 156.675781 229.6875 151.871094 C 226.28125 167.777344 205.546875 184.722656 197.691406 191.242188 C 196.316406 192.335938 193.726562 191.625 191.917969 191.980469 C 187.890625 192.71875 184 194.203125 179.957031 194.726562 C 179.714844 194.800781 180.695312 195.628906 180.695312 195.628906 L 180.503906 187.160156 C 180.503906 187.160156 193.6875 165.765625 200.539062 155.941406 C 200.539062 155.941406 206.347656 134.390625 206.347656 134.390625 C 206.347656 134.390625 202.96875 117.75 202.96875 117.75 Z M 201.570312 115.691406 " fill-opacity="0.4" fill-rule="nonzero"/><path fill="#b0afeb" d="M 202.992188 113.898438 C 203.347656 113.914062 214.292969 136.589844 213.863281 140.035156 C 213.863281 140.035156 205 153.691406 202.917969 161.191406 L 205.28125 147.601562 L 205.675781 125.542969 Z M 202.992188 113.898438 " fill-opacity="1" fill-rule="nonzero"/><path fill="#000000" d="M 157.988281 113.847656 C 157.632812 113.863281 146.726562 136.578125 147.160156 140.023438 C 147.160156 140.023438 156.335938 153.539062 158.433594 161.039062 L 155.738281 147.574219 L 155.347656 125.519531 Z M 157.988281 113.847656 " fill-opacity="0.4" fill-rule="nonzero"/><path fill="#000000" d="M 195.035156 121.195312 C 195.125 120.382812 194.511719 119.863281 193.800781 119.710938 C 185.296875 117.90625 173.195312 117.738281 165.097656 120.992188 C 162.464844 122.046875 157.394531 123.117188 158.980469 118.476562 C 194.894531 84.253906 235.789062 145.566406 180.695312 166.988281 C 180.71875 166.960938 180.582031 166.960938 180.566406 166.9375 C 180.222656 160.886719 180.300781 156.957031 180.121094 151.679688 C 180.121094 151.679688 185.117188 155.378906 187 155.417969 C 184.203125 153.550781 180.644531 147.84375 179.984375 144.550781 C 183.390625 148.746094 187.242188 148.960938 188.460938 148.960938 C 182.945312 146.519531 179.703125 138.792969 180.503906 132.535156 C 180.617188 132.664062 180.898438 132.890625 181.050781 133.03125 C 182.945312 134.925781 185.578125 135.945312 188.234375 135.550781 C 186.785156 134.316406 185.269531 133.109375 183.769531 131.964844 C 182.5625 130.351562 182.714844 128 183.65625 126.308594 C 183.65625 127.691406 183.808594 128.125 184.140625 128.542969 C 188.066406 126.242188 194.742188 124.832031 195.035156 121.195312 Z M 195.035156 121.195312 " fill-opacity="0.4" fill-rule="nonzero"/><path fill="#000000" d="M 213.835938 180.335938 C 207.898438 190.164062 201.722656 200.242188 192.453125 207.019531 C 209.667969 195.082031 207.683594 193.136719 216.976562 186.476562 C 219.289062 186.515625 224.628906 187.085938 227.03125 186.804688 C 228.632812 186.578125 230.476562 186.957031 231.886719 186.070312 C 242.871094 180.195312 248.554688 171.054688 246.582031 158.355469 C 255.140625 172.328125 248.515625 192.15625 233.222656 198.09375 C 231.253906 198.921875 229.21875 199.238281 227.503906 200.511719 C 218.617188 205.683594 209.105469 209.878906 199.265625 212.867188 C 191.257812 214.519531 184.484375 218.449219 180.65625 225.832031 C 180.425781 220.136719 180.566406 214 180.3125 208.480469 C 180.464844 206.054688 183.453125 200.167969 185.308594 198.476562 C 195.023438 192.832031 205.292969 187.824219 213.835938 180.335938 Z M 213.835938 180.335938 " fill-opacity="0.4" fill-rule="nonzero"/><path fill="#000000" d="M 255 188.765625 C 256.117188 188.304688 256.867188 187.378906 256.664062 186.132812 C 256.449219 184.976562 255.40625 181.453125 254.554688 180.679688 C 234.253906 191.800781 224.042969 206.5625 255 188.765625 Z M 255 188.765625 " fill-opacity="0.4" fill-rule="nonzero"/><path fill="#000000" d="M 226.929688 132.015625 C 228.695312 130.847656 231.671875 129.5 234.378906 130.019531 C 233.273438 130.234375 232.574219 130.566406 231.863281 131.152344 C 236.949219 130.808594 238.015625 136.4375 238.917969 140.648438 C 237.964844 139.234375 237.164062 138.195312 235.664062 137.683594 C 237.582031 144.652344 244.308594 149.175781 251.882812 147.589844 C 249.851562 148.71875 247.484375 149.304688 245.566406 149.292969 C 252.851562 152.953125 254.441406 151.3125 258.507812 148.492188 C 261.851562 146.480469 265.117188 139.730469 269.769531 141.535156 C 271.195312 142.402344 271.183594 144.472656 270.6875 146.0625 C 267.6875 155.890625 254.707031 159.398438 246.074219 155 C 241.703125 152.976562 238.574219 149.214844 235.765625 145.300781 C 234.902344 144.09375 234.023438 142.757812 232.738281 141.96875 C 232.027344 141.535156 231.265625 141.535156 230.453125 141.535156 C 229.625 141.535156 228.773438 141.636719 228.011719 141.996094 C 227.109375 142.425781 226.410156 143.175781 225.519531 143.621094 C 224.121094 144.320312 222.378906 144.15625 221.042969 143.355469 C 219.710938 142.554688 218.78125 141.167969 218.363281 139.65625 C 217.953125 138.15625 218.03125 136.539062 218.398438 135.027344 C 218.578125 134.289062 218.84375 133.578125 219.226562 132.929688 C 219.316406 132.789062 219.417969 132.636719 219.570312 132.5625 C 219.925781 132.398438 220.308594 132.726562 220.613281 132.980469 C 221.375 133.628906 222.390625 133.960938 223.394531 133.898438 C 224.871094 133.808594 225.785156 132.789062 226.929688 132.015625 Z M 226.929688 132.015625 " fill-opacity="0.4" fill-rule="nonzero"/><path fill="#b0afeb" d="M 163.992188 105.203125 C 163.101562 107.671875 162.121094 110.085938 161.347656 112.589844 C 161.003906 113.695312 160.683594 114.839844 160.40625 115.972656 C 160.40625 115.972656 158.574219 115.261719 158.574219 115.261719 C 158.613281 115.183594 158.664062 115.082031 158.714844 115.007812 C 159.261719 114.101562 159.984375 113.328125 160.75 112.617188 C 161.511719 111.917969 162.386719 111.21875 163.242188 110.644531 C 163.609375 110.378906 164.167969 110.035156 164.5625 109.792969 C 164.957031 109.550781 165.515625 109.210938 165.921875 109.019531 C 167.703125 108.039062 169.683594 107.199219 171.578125 106.5 C 172.40625 106.222656 173.308594 105.929688 174.136719 105.664062 C 176.234375 105.066406 178.355469 104.570312 180.503906 104.265625 C 179.589844 104.722656 178.660156 105.152344 177.734375 105.5625 C 174.554688 107.035156 171.339844 108.496094 168.261719 110.175781 C 166.140625 111.359375 164.015625 112.640625 162.160156 114.21875 C 161.5 114.789062 160.851562 115.398438 160.355469 116.113281 C 160.34375 116.125 160.34375 116.125 160.34375 116.125 C 160.34375 116.125 160.328125 116.125 160.328125 116.125 L 157.367188 118.871094 C 157.367188 118.871094 158.511719 115.425781 158.511719 115.425781 C 159.71875 111.726562 161.625 108.28125 163.992188 105.203125 Z M 163.992188 105.203125 " fill-opacity="1" fill-rule="nonzero"/><path fill="#b0afeb" d="M 256.078125 142.148438 C 236.539062 146.125 242.210938 131.136719 237.851562 125.125 C 236.882812 123.804688 235.308594 123.078125 233.679688 123.167969 C 231.023438 123.308594 228.367188 124.3125 226.242188 125.863281 C 227.488281 123.714844 228.925781 121.375 231.390625 120.535156 C 235.269531 119.710938 240.136719 121.222656 241.980469 124.707031 C 241.980469 124.707031 243.863281 135.894531 243.863281 135.894531 L 247.917969 140.265625 C 248.441406 141.246094 255.40625 141.246094 256.078125 142.148438 Z M 256.078125 142.148438 " fill-opacity="1" fill-rule="nonzero"/><path fill="#b0afeb" d="M 173.003906 85.449219 C 170.027344 87.523438 166.890625 89.3125 163.710938 91.03125 C 163.101562 91.375 162.464844 91.679688 161.867188 92.035156 C 160.164062 93.050781 158.703125 94.449219 157.621094 96.113281 C 156.847656 97.234375 156.363281 98.53125 155.867188 99.789062 C 154.519531 103.132812 153.082031 106.464844 151.355469 109.640625 C 151.875 106.78125 152.613281 103.984375 153.414062 101.199219 C 153.757812 100.03125 154.136719 98.707031 154.53125 97.5625 C 155.089844 95.898438 156.019531 94.375 157.1875 93.0625 C 158.371094 91.765625 159.796875 90.6875 161.382812 89.949219 C 162.527344 89.414062 163.699219 88.917969 164.867188 88.4375 C 167.523438 87.34375 170.21875 86.289062 173.003906 85.449219 Z M 173.003906 85.449219 " fill-opacity="1" fill-rule="nonzero"/><path fill="#b0afeb" d="M 153.171875 115.882812 C 147.464844 122.8125 144.78125 130.09375 145.570312 139.097656 C 145.964844 143.875 147.300781 148.527344 148.964844 153.003906 C 150.691406 157.542969 152.828125 161.941406 155.078125 166.238281 C 155.636719 167.332031 156.234375 168.398438 156.796875 169.492188 C 155.269531 167.570312 153.796875 165.578125 152.472656 163.503906 C 147.171875 155.328125 142.898438 145.363281 143.371094 135.460938 C 143.714844 127.691406 147.210938 120.867188 153.171875 115.882812 Z M 153.171875 115.882812 " fill-opacity="1" fill-rule="nonzero"/><path fill="#b0afeb" d="M 128.765625 142.402344 C 127.503906 147.957031 127.007812 153.652344 127.621094 159.308594 C 128.015625 162.855469 128.839844 166.351562 129.90625 169.757812 C 130.339844 171.09375 130.796875 172.480469 131.253906 173.800781 C 131.371094 174.144531 131.484375 174.488281 131.585938 174.855469 C 130.480469 173.878906 129.488281 172.785156 128.625 171.589844 C 125.066406 166.769531 123.375 160.617188 123.882812 154.644531 C 124.265625 150.308594 125.777344 145.628906 128.765625 142.402344 Z M 128.765625 142.402344 " fill-opacity="1" fill-rule="nonzero"/><path fill="#b0afeb" d="M 115.058594 157.683594 C 115.199219 162.167969 114.550781 166.644531 113.941406 171.042969 C 113.75 172.492188 113.507812 173.902344 113.445312 175.351562 C 113.445312 175.515625 113.445312 175.707031 113.457031 175.835938 C 113.457031 175.835938 113.523438 176.242188 113.523438 176.242188 L 113.546875 176.445312 C 113.585938 176.574219 113.660156 176.914062 113.6875 177.042969 C 113.75 177.234375 113.828125 177.4375 113.878906 177.628906 C 113.964844 177.820312 114.042969 177.996094 114.121094 178.199219 C 115.621094 181.097656 118.707031 183.285156 121.160156 185.523438 C 121.722656 186.03125 122.292969 186.539062 122.839844 187.097656 C 121.683594 186.933594 120.566406 186.667969 119.445312 186.335938 C 115.582031 185.191406 111.425781 183.019531 109.695312 179.113281 C 109.515625 178.734375 109.328125 178.199219 109.210938 177.792969 C 109.136719 177.601562 109.085938 177.308594 109.046875 177.121094 C 108.957031 176.6875 108.84375 176.039062 108.855469 175.617188 C 108.945312 170.316406 112.085938 162.066406 115.058594 157.683594 Z M 115.058594 157.683594 " fill-opacity="1" fill-rule="nonzero"/><path fill="#b0afeb" d="M 105.804688 182.21875 C 105.257812 183.4375 104.609375 184.582031 103.898438 185.699219 C 103.542969 186.257812 103.1875 186.804688 102.792969 187.339844 C 102.359375 187.914062 101.941406 188.523438 101.382812 189.003906 C 101.382812 189.003906 101.191406 187.265625 101.191406 187.265625 C 101.621094 187.441406 102.488281 187.808594 102.90625 188 C 105.703125 189.246094 108.4375 190.621094 111.117188 192.121094 C 111.117188 192.121094 114.359375 193.949219 114.359375 193.949219 C 114.207031 193.949219 114.042969 193.9375 113.890625 193.925781 C 111.550781 193.746094 109.277344 193.011719 107.078125 192.210938 C 104.777344 191.34375 102.539062 190.289062 100.363281 189.121094 C 100.363281 189.121094 98.980469 188.382812 98.980469 188.382812 C 99.398438 188.015625 100.363281 187.238281 100.757812 186.855469 C 102.410156 185.269531 104 183.628906 105.804688 182.21875 Z M 105.804688 182.21875 " fill-opacity="1" fill-rule="nonzero"/><path fill="#000000" d="M 180.515625 176.421875 C 180.515625 180.003906 180.503906 183.578125 180.515625 187.160156 C 180.53125 183.578125 180.515625 179.992188 180.515625 176.421875 Z M 180.515625 176.421875 " fill-opacity="1" fill-rule="nonzero"/><path fill="#000000" d="M 211.394531 137.582031 C 209.550781 129.585938 205.535156 121.578125 202.980469 113.863281 C 201.351562 110.785156 199.496094 107.695312 197.03125 105.203125 C 198.847656 108.523438 200.628906 112.003906 201.554688 115.691406 C 197.652344 110.46875 186.695312 106.347656 180.503906 104.25 C 174.3125 106.347656 163.355469 110.46875 159.453125 115.691406 C 160.378906 112.003906 162.171875 108.535156 163.976562 105.203125 C 161.511719 107.695312 159.667969 110.796875 158.027344 113.863281 C 155.5 121.578125 151.480469 129.585938 149.625 137.582031 C 149.269531 139.121094 149.511719 140.734375 150.300781 142.109375 C 158.96875 157.273438 157.851562 169.667969 173.359375 183.742188 C 169.175781 177.527344 164.855469 170.839844 162.503906 163.695312 C 167.027344 171.21875 174.222656 181.023438 180.503906 187.160156 C 186.769531 181.035156 193.964844 171.21875 198.503906 163.695312 C 196.152344 170.839844 191.832031 177.527344 187.648438 183.742188 C 203.15625 169.667969 202.039062 157.289062 210.707031 142.109375 C 211.507812 140.734375 211.75 139.121094 211.394531 137.582031 Z M 180.554688 110.351562 C 183.921875 110.53125 187.890625 112.234375 192.019531 114.382812 C 184.191406 115.78125 176.574219 115.820312 169.203125 114.308594 C 172.648438 112.273438 176.386719 110.863281 180.554688 110.351562 Z M 166.445312 116.113281 C 172.378906 118.859375 192.808594 117.535156 194.613281 115.996094 L 200.296875 119.1875 C 187.152344 123.28125 173.816406 123.410156 160.328125 119.863281 C 160.316406 119.875 163.699219 116.671875 166.445312 116.113281 Z M 159.199219 121.996094 C 163.953125 124.566406 169.445312 127.566406 174.085938 130.402344 C 169.925781 128.417969 165.425781 127.300781 161.421875 125.023438 C 160.46875 126.460938 160.050781 127.769531 159.796875 129.472656 C 160.203125 128.542969 160.648438 127.554688 161.6875 127.222656 C 161.804688 135.15625 167.484375 133.578125 173.128906 133.757812 C 172.277344 134.976562 171.339844 135.421875 169.316406 136.046875 C 173.195312 135.96875 175.011719 134.953125 176.09375 133.578125 C 178.328125 133.605469 179.472656 131.875 178.976562 129.765625 C 178.6875 128.480469 177.972656 127.425781 177.375 126.28125 C 177.515625 127.351562 177.71875 128.507812 177.25 129.511719 C 173.601562 127.769531 169.925781 125.519531 166.265625 123.867188 C 171.617188 124.882812 175.789062 125.441406 180.53125 125.519531 C 185.285156 125.429688 189.554688 124.984375 194.792969 123.867188 C 191.117188 125.53125 187.457031 127.769531 183.808594 129.511719 C 183.339844 128.507812 183.542969 127.351562 183.683594 126.28125 C 183.085938 127.425781 182.371094 128.480469 182.082031 129.765625 C 181.585938 131.875 182.730469 133.605469 184.964844 133.578125 C 186.035156 134.9375 187.863281 135.96875 191.742188 136.046875 C 189.71875 135.421875 188.78125 134.976562 187.929688 133.757812 C 193.574219 133.578125 199.265625 135.15625 199.371094 127.222656 C 200.398438 127.554688 200.84375 128.542969 201.261719 129.472656 C 201.023438 127.757812 200.589844 126.445312 199.636719 125.023438 C 195.632812 127.300781 191.132812 128.429688 186.972656 130.402344 C 191.628906 127.566406 197.105469 124.578125 201.859375 121.996094 C 203.578125 129.054688 204.734375 137 195.746094 138.6875 C 198.785156 137 201.125 134.914062 201.429688 131.277344 C 196.078125 138.195312 186.238281 140.152344 180.53125 132.523438 C 174.820312 140.136719 164.996094 138.179688 159.628906 131.277344 C 159.933594 134.914062 162.273438 137 165.324219 138.6875 C 156.324219 137 157.480469 129.054688 159.199219 121.996094 Z M 175.394531 132.320312 C 172.457031 132.105469 169.429688 132.167969 166.519531 132.179688 C 165.796875 132.179688 165.351562 131.988281 164.945312 131.441406 C 164.117188 130.335938 163.800781 128.925781 163.417969 127.617188 C 166.558594 129.613281 171.78125 130.820312 175.394531 132.320312 Z M 185.628906 132.320312 C 189.238281 130.820312 194.476562 129.613281 197.601562 127.617188 C 197.222656 128.925781 196.902344 130.351562 196.078125 131.441406 C 195.667969 131.988281 195.210938 132.191406 194.5 132.179688 C 191.589844 132.167969 188.5625 132.105469 185.628906 132.320312 Z M 196.597656 156.195312 C 191.855469 160.085938 185.90625 162.613281 180.503906 165.421875 C 175.101562 162.613281 169.152344 160.085938 164.410156 156.195312 C 161.96875 150.257812 159.222656 144.246094 157.699219 137.988281 C 162.871094 144.078125 171.210938 144.511719 176.179688 137.925781 C 175.773438 141.066406 174.476562 143.570312 172.992188 146.316406 C 176.078125 143.113281 178.8125 139.453125 180.503906 135.320312 C 182.207031 139.453125 184.929688 143.125 188.015625 146.316406 C 186.515625 143.570312 185.21875 141.066406 184.824219 137.925781 C 189.796875 144.523438 198.136719 144.09375 203.308594 137.988281 C 201.785156 144.246094 199.050781 150.246094 196.597656 156.195312 Z M 196.597656 156.195312 " fill-opacity="1" fill-rule="nonzero"/><path fill="#2cf0f4" d="M 197.601562 127.617188 C 197.234375 128.925781 196.902344 130.351562 196.078125 131.441406 C 195.667969 131.988281 195.226562 132.191406 194.5 132.179688 C 191.589844 132.15625 188.5625 132.089844 185.628906 132.320312 C 189.238281 130.820312 194.476562 129.613281 197.601562 127.617188 Z M 197.601562 127.617188 " fill-opacity="1" fill-rule="nonzero"/><path fill="#000000" d="M 180.515625 176.421875 C 180.515625 180.003906 180.503906 183.578125 180.515625 187.160156 C 180.53125 183.578125 180.515625 179.992188 180.515625 176.421875 Z M 180.515625 176.421875 " fill-opacity="1" fill-rule="nonzero"/><path fill="#2cf0f4" d="M 175.394531 132.320312 C 172.457031 132.105469 169.429688 132.15625 166.519531 132.179688 C 165.796875 132.179688 165.351562 131.988281 164.945312 131.441406 C 164.117188 130.335938 163.800781 128.925781 163.417969 127.617188 C 166.558594 129.613281 171.78125 130.820312 175.394531 132.320312 Z M 175.394531 132.320312 " fill-opacity="1" fill-rule="nonzero"/><path fill="#000000" d="M 263.578125 186.425781 C 262.472656 185.6875 257.324219 181.351562 253.128906 176.34375 C 252.089844 167.164062 250.144531 160.9375 248.679688 157.3125 C 248.199219 156.132812 247.777344 155.214844 247.449219 154.578125 C 247.027344 153.765625 246.773438 153.371094 246.773438 153.371094 L 245.273438 154.160156 L 236.667969 144.398438 L 232.714844 139.910156 C 232.714844 139.910156 230.667969 140.570312 228.175781 141.347656 C 225.25 142.25 221.71875 143.277344 220.191406 143.519531 C 220.410156 141.929688 220.039062 137 219.746094 133.65625 C 219.582031 131.773438 219.441406 130.386719 219.441406 130.386719 C 219.441406 130.386719 219.289062 129.839844 218.996094 129.003906 C 218.347656 127.109375 217.039062 123.703125 215.375 121.667969 C 209.769531 115.246094 197.066406 97.054688 196.890625 96.8125 C 196.941406 96.953125 200.425781 105.636719 207.058594 114.738281 C 208.371094 116.542969 209.832031 118.234375 211.371094 119.863281 C 223.382812 132.574219 216.300781 151.019531 203.121094 171.308594 C 203.410156 171.054688 222.265625 154.527344 230.871094 144.144531 C 231.226562 143.710938 231.558594 143.292969 231.875 142.898438 C 232.003906 142.730469 232.128906 142.566406 232.257812 142.402344 C 232.34375 142.644531 232.433594 142.898438 232.523438 143.140625 C 232.601562 143.34375 232.664062 143.546875 232.738281 143.75 C 236.949219 156.042969 235.550781 163.238281 229.445312 174.855469 C 236.71875 170.445312 243.1875 165.246094 245.972656 157.695312 C 245.972656 157.695312 248.898438 168.882812 248.78125 175.925781 C 248.746094 178.289062 247.625 180.511719 245.769531 181.976562 C 238.320312 187.847656 218.488281 199.085938 218.171875 199.265625 C 218.386719 199.1875 229.867188 195.996094 235.652344 192.15625 C 228.847656 200.714844 204.835938 204.628906 180.515625 221.945312 L 180.515625 230.703125 C 194.207031 219.273438 223.726562 207.425781 237.265625 198.628906 C 243.40625 197.523438 252.722656 197.839844 262.765625 198.476562 C 263.796875 194.675781 264.050781 190.65625 263.578125 186.425781 Z M 240.152344 195.921875 C 247.535156 190.480469 253.742188 184.976562 255.214844 182.21875 C 256.753906 184.226562 258.429688 186.207031 260.238281 188.191406 C 253.449219 191.726562 246.75 194.382812 240.152344 195.921875 Z M 240.152344 195.921875 " fill-opacity="1" fill-rule="nonzero"/><path fill="#000000" d="M 232.257812 152.496094 C 227.121094 167.726562 218.3125 183.347656 208.457031 193.949219 L 218.273438 190.964844 C 209.054688 197.636719 199.433594 204.859375 189.339844 210.425781 C 210.722656 202.417969 235.613281 189.03125 242.527344 171.285156 C 235.980469 176.214844 228.316406 181.621094 221.144531 183.804688 C 229.207031 170.710938 232.550781 162.082031 232.257812 152.496094 Z M 232.257812 152.496094 " fill-opacity="1" fill-rule="nonzero"/><path fill="#000000" d="M 187.089844 197.484375 C 192.261719 197.546875 197.335938 196.480469 202.355469 194.472656 C 196.953125 200.34375 189.226562 205.925781 180.503906 211.316406 C 171.796875 205.914062 164.054688 200.34375 158.652344 194.472656 C 163.660156 196.480469 168.746094 197.546875 173.917969 197.484375 C 162.351562 191.546875 150.183594 183.285156 146.089844 170.40625 C 158.421875 181.085938 168.820312 188.648438 180.503906 192.375 C 192.175781 188.648438 202.574219 181.097656 214.917969 170.40625 C 210.824219 183.285156 198.65625 191.5625 187.089844 197.484375 Z M 187.089844 197.484375 " fill-opacity="1" fill-rule="nonzero"/><path fill="#000000" d="M 212.527344 120.816406 C 211.117188 114.230469 206.871094 98.25 203.308594 93.546875 C 196.382812 87.496094 182.882812 83.683594 180.515625 83.035156 C 178.140625 83.667969 164.640625 87.484375 157.722656 93.546875 C 154.164062 98.25 150.425781 112.910156 149.015625 119.492188 L 145.457031 122.226562 C 145.671875 121.222656 150.769531 97.628906 155.5 91.613281 L 155.574219 91.511719 L 155.675781 91.425781 C 163.75 84.28125 179.5 80.25 180.171875 80.085938 L 180.53125 79.996094 L 180.886719 80.085938 C 181.546875 80.25 197.308594 84.28125 205.382812 91.425781 L 205.484375 91.511719 L 205.558594 91.613281 C 210.289062 97.628906 215.386719 121.222656 215.601562 122.226562 Z M 212.527344 120.816406 " fill-opacity="1" fill-rule="nonzero"/><path fill="#000000" d="M 98.265625 198.464844 C 108.296875 197.828125 117.613281 197.496094 123.769531 198.617188 C 137.308594 207.414062 166.824219 219.261719 180.515625 230.691406 L 180.515625 221.917969 C 156.210938 204.605469 132.195312 200.6875 125.382812 192.132812 C 131.179688 195.972656 142.644531 199.164062 142.863281 199.238281 C 142.558594 199.0625 122.710938 187.824219 115.261719 181.949219 C 113.40625 180.488281 112.289062 178.261719 112.25 175.898438 C 112.136719 168.855469 115.058594 157.667969 115.058594 157.667969 C 117.84375 165.234375 124.316406 170.417969 131.585938 174.832031 C 124.632812 162.90625 124.289062 152.304688 128.765625 142.375 C 136.542969 152.609375 157.902344 171.296875 157.902344 171.296875 C 144.71875 151.019531 137.636719 132.5625 149.652344 119.847656 C 151.1875 118.222656 152.636719 116.53125 153.960938 114.726562 C 160.597656 105.625 164.078125 96.929688 164.128906 96.800781 C 163.953125 97.054688 151.253906 115.234375 145.644531 121.65625 C 143.242188 124.589844 141.578125 130.375 141.578125 130.375 C 141.578125 130.375 140.484375 141.015625 140.828125 143.496094 C 138.007812 143.050781 128.304688 139.882812 128.304688 139.882812 L 115.746094 154.136719 L 114.273438 152.585938 C 114.273438 152.585938 109.707031 160.402344 107.902344 176.355469 C 103.707031 181.363281 98.558594 185.699219 97.453125 186.4375 C 96.96875 190.65625 97.222656 194.675781 98.265625 198.464844 Z M 100.785156 188.203125 C 102.589844 186.222656 104.265625 184.226562 105.804688 182.230469 C 107.265625 184.988281 113.472656 190.492188 120.871094 195.933594 C 114.273438 194.382812 107.574219 191.726562 100.785156 188.203125 Z M 100.785156 188.203125 " fill-opacity="1" fill-rule="nonzero"/><path fill="#000000" d="M 129.335938 152.546875 C 133.453125 166.871094 142.722656 183.347656 152.574219 193.949219 L 142.761719 190.964844 C 151.976562 197.636719 161.601562 204.859375 171.695312 210.425781 C 150.3125 202.417969 125.421875 189.03125 118.503906 171.285156 C 125.050781 176.214844 132.71875 181.621094 139.886719 183.804688 C 131.816406 170.710938 129.03125 162.144531 129.335938 152.546875 Z M 129.335938 152.546875 " fill-opacity="1" fill-rule="nonzero"/><path fill="#000000" d="M 275.566406 138.777344 C 271.21875 150.472656 258.824219 163.554688 245.898438 156.042969 C 243.953125 154.921875 241.347656 155.902344 239.640625 154.464844 C 238.789062 153.742188 240.074219 149.378906 239.183594 148.695312 C 237.164062 146.875 232.828125 145.007812 232.257812 142.402344 C 231.800781 143 231.355469 143.558594 230.859375 144.15625 C 227.65625 146.0625 224.398438 147.90625 220.980469 149.40625 L 219.339844 146.445312 C 223.675781 143.53125 228.367188 141.179688 233.082031 138.945312 C 235.066406 141.523438 236.566406 144.433594 238.359375 147.144531 C 239.933594 149.480469 241.484375 153.066406 243.785156 154.644531 C 244.308594 155 245.4375 154.363281 246.0625 153.867188 C 257.148438 160.71875 265.625 152.609375 270.074219 142.515625 C 267.011719 142.746094 263.796875 143.203125 260.835938 143.992188 C 261.113281 142.058594 261.660156 139.695312 261.546875 137.75 C 255.328125 146.570312 241.738281 144.878906 241.117188 133.03125 C 240.863281 130.820312 240.886719 128.710938 240.835938 126.523438 C 237.53125 114.332031 223.050781 128.632812 219.46875 134.0625 L 217.34375 131.152344 C 221.488281 125.570312 227.691406 119.164062 234.40625 117.980469 C 240.304688 116.898438 245.386719 122.136719 244.90625 127.949219 C 244.980469 130.386719 244.96875 133.058594 245.695312 135.347656 C 246.136719 136.820312 247.054688 138.144531 248.492188 138.765625 C 252.546875 140.507812 257.199219 138.039062 259.15625 134.265625 C 260.453125 132.28125 261.585938 128.417969 261.699219 124.871094 C 263.988281 128.164062 265.816406 134.621094 265.167969 139.464844 C 268.574219 139.070312 272.148438 138.917969 275.566406 138.777344 Z M 275.566406 138.777344 " fill-opacity="1" fill-rule="nonzero"/><path fill="#000000" d="M 220.179688 141.96875 C 220.179688 141.96875 224.921875 133.324219 233.527344 131.671875 C 233.527344 131.671875 226.269531 136.222656 223.5625 144.980469 L 219.441406 145.769531 Z M 220.179688 141.96875 " fill-opacity="1" fill-rule="nonzero"/><path fill="#000000" d="M 226.574219 129.574219 C 227.667969 127.757812 229.613281 126.433594 231.710938 126.015625 C 233.589844 125.59375 235.839844 126.269531 236.882812 127.921875 C 236.402344 127.757812 235.96875 127.578125 235.523438 127.476562 C 232.34375 126.652344 229.421875 128.304688 226.574219 129.574219 Z M 226.574219 129.574219 " fill-opacity="1" fill-rule="nonzero"/><path fill="#000000" d="M 265.703125 140.265625 C 265.589844 140.863281 265.359375 141.433594 265.105469 141.980469 C 264.75 142.769531 264.265625 143.546875 263.769531 144.230469 C 261.824219 146.890625 259.15625 148.796875 256.230469 150.21875 C 255.660156 150.472656 255.089844 150.714844 254.527344 150.96875 C 255.011719 150.574219 255.496094 150.195312 255.964844 149.8125 C 256.28125 149.519531 256.828125 149.023438 257.136719 148.730469 C 259.003906 146.851562 260.667969 144.574219 261.417969 142.019531 C 261.597656 141.421875 261.738281 140.761719 261.761719 140.136719 C 261.761719 140.050781 261.761719 139.972656 261.761719 139.898438 C 261.671875 139.898438 265.714844 140.265625 265.703125 140.265625 Z M 265.703125 140.265625 " fill-opacity="1" fill-rule="nonzero"/><path fill="#000000" d="M 137.792969 128.378906 L 140.019531 126.933594 L 143.460938 132.234375 L 141.230469 133.679688 Z M 137.792969 128.378906 " fill-opacity="1" fill-rule="nonzero"/><path fill="#000000" d="M 163.429688 127.617188 C 163.429688 127.617188 164.675781 130.199219 166.253906 130.742188 C 167.828125 131.289062 176.027344 132.398438 176.027344 132.398438 L 166.304688 133.324219 C 166.304688 133.324219 162.25 129.449219 162.261719 129.242188 C 162.261719 129.054688 163.429688 127.617188 163.429688 127.617188 Z M 163.429688 127.617188 " fill-opacity="0.3" fill-rule="nonzero"/><path fill="#000000" d="M 197.601562 127.617188 C 197.601562 127.617188 196.355469 130.199219 194.78125 130.742188 C 193.203125 131.289062 185.003906 132.398438 185.003906 132.398438 L 194.730469 133.324219 C 194.730469 133.324219 198.785156 129.449219 198.773438 129.242188 C 198.757812 129.039062 197.601562 127.617188 197.601562 127.617188 Z M 197.601562 127.617188 " fill-opacity="0.3" fill-rule="nonzero"/></svg>